<?xml version="1.0" encoding="UTF-8"?>
<svg id="Layer_1" xmlns="http://www.w3.org/2000/svg" version="1.1" viewBox="0 0 2475.73 1504.85">
  <!-- Generator: Adobe Illustrator 29.6.1, SVG Export Plug-In . SVG Version: 2.1.1 Build 9)  -->
  <defs>
    <style>
      .st0 {
        fill: #031e59;
      }
    </style>
  </defs>
  <path class="st0" d="M364.99,922.33c108.5,0,198.52,78.73,215.91,182.04h147.26c-18.31-183.98-173.91-327.67-363.17-327.67C163.41,776.7,0,939.7,0,1140.78s163.41,364.08,364.99,364.08c189.26,0,344.85-143.69,363.17-327.67h-147.26c-17.39,103.31-107.4,182.04-215.91,182.04-120.95,0-218.99-97.8-218.99-218.45s98.05-218.45,218.99-218.45Z"/>
  <polygon class="st0" points="922.33 776.7 776.7 776.7 776.7 1359.22 776.7 1504.85 922.33 1504.85 1116.5 1504.85 1116.5 1359.22 922.33 1359.22 922.33 776.7"/>
  <polygon class="st0" points="1699.03 1359.22 1310.68 1359.22 1310.68 776.7 1165.05 776.7 1165.05 1504.85 1252.56 1504.85 1310.68 1504.85 1699.03 1504.85 1844.66 1504.85 1844.66 1359.22 1844.66 776.7 1699.03 776.7 1699.03 1359.22"/>
  <path class="st0" d="M364.99,145.63c108.5,0,198.52,78.73,215.91,182.04h147.26C709.84,143.69,554.25,0,364.99,0,163.41,0,0,163,0,364.08s163.41,364.08,364.99,364.08c189.26,0,344.85-143.69,363.17-327.67h-147.26c-17.39,103.31-107.4,182.04-215.91,182.04-120.95,0-218.99-97.8-218.99-218.45s98.05-218.45,218.99-218.45Z"/>
  <polygon class="st0" points="1504.85 728.15 1504.85 582.52 922.33 582.52 922.33 0 776.7 0 776.7 582.52 776.7 728.15 922.33 728.15 1504.85 728.15"/>
  <rect class="st0" x="1553.4" width="145.63" height="728.15"/>
  <path class="st0" d="M2112.56,582.52c-120.95,0-218.99-97.8-218.99-218.45s98.05-218.45,218.99-218.45c108.5,0,198.52,78.73,215.91,182.04h147.26C2457.41,143.69,2301.82,0,2112.56,0c-201.58,0-364.99,163-364.99,364.08s163.41,364.08,364.99,364.08c189.26,0,344.85-143.69,363.17-327.67h-147.26c-17.39,103.31-107.4,182.04-215.91,182.04Z"/>
  <path class="st0" d="M2257.28,776.7h0s-364.08,0-364.08,0v145.63h0v145.63h0v145.63h0v291.26h26.21s337.86,0,337.86,0h0c120.64,0,218.45-97.8,218.45-218.45,0-55.95-21.05-106.98-55.64-145.63,34.6-38.65,55.64-89.68,55.64-145.63,0-120.64-97.8-218.45-218.45-218.45ZM2330.05,1288.92c-1.33,39.37-34.27,70.3-73.66,70.3h-229.69v-145.63h230.58c41.05,0,74.17,33.97,72.77,75.33ZM2257.28,1067.96h0s-230.58,0-230.58,0v-145.63h229.69c39.39,0,72.33,30.93,73.66,70.3,1.4,41.36-31.72,75.34-72.77,75.34Z"/>
</svg>